<?xml version="1.0" encoding="UTF-8"?> <svg xmlns="http://www.w3.org/2000/svg" width="115" height="44" viewBox="0 0 115 44" fill="none"><path d="M7.15 20.225C11.4 20.225 13.675 17.375 13.675 13.475C13.675 9.55 11.35 6.7 7.15 6.7C2.95 6.7 0.625 9.55 0.625 13.475C0.625 17.4 2.9 20.225 7.15 20.225ZM7.15 16.85C5.575 16.85 4.55 15.85 4.55 13.475C4.55 11.125 5.55 10.075 7.15 10.075C8.75 10.075 9.75 11.1 9.75 13.475C9.75 15.85 8.75 16.85 7.15 16.85ZM15.0566 20H18.9066V12.75C18.9066 11.175 20.0066 10.2 21.3816 10.2C22.9066 10.2 23.5816 11.1 23.5816 12.6V20H27.4316V11.4C27.4316 8.5 25.4816 6.7 22.5816 6.7C20.8816 6.7 19.7316 7.325 19.0066 8.175H18.9066V1.5H15.0566V20ZM31.1307 5.6C32.6057 5.6 33.4557 4.75 33.4557 3.35C33.4557 1.975 32.6057 1.125 31.1307 1.125C29.6057 1.125 28.8057 1.975 28.8057 3.35C28.8057 4.75 29.6057 5.6 31.1307 5.6ZM29.1807 20H33.0307V6.925H29.1807V20ZM40.6842 20.225C44.9342 20.225 47.2092 17.375 47.2092 13.475C47.2092 9.55 44.8842 6.7 40.6842 6.7C36.4842 6.7 34.1592 9.55 34.1592 13.475C34.1592 17.4 36.4342 20.225 40.6842 20.225ZM40.6842 16.85C39.1092 16.85 38.0842 15.85 38.0842 13.475C38.0842 11.125 39.0842 10.075 40.6842 10.075C42.2842 10.075 43.2842 11.1 43.2842 13.475C43.2842 15.85 42.2842 16.85 40.6842 16.85ZM8.675 42.225C11.975 42.225 13.975 39.375 13.975 35.45C13.975 31.55 11.975 28.7 8.675 28.7C6.825 28.7 5.825 29.425 5.2 30.175H5.1V23.5H1.25V42H4.7L5.1 40.75H5.2C5.825 41.5 6.825 42.225 8.675 42.225ZM7.5 38.85C5.6 38.85 4.925 37.275 4.925 35.45C4.925 33.625 5.55 32.075 7.5 32.075C9.45 32.075 10.075 33.625 10.075 35.45C10.075 37.275 9.4 38.85 7.5 38.85ZM23.4746 28.925V36.2C23.4746 37.7 22.8496 38.6 21.3496 38.6C19.8246 38.6 19.1996 37.7 19.1996 36.2V28.925H15.3496V36.775C15.3496 39.55 17.0496 42.225 21.3246 42.225C21.3246 42.225 21.3246 42.225 21.3496 42.225C25.6246 42.225 27.3246 39.55 27.3246 36.775V28.925H23.4746ZM29.3271 42H32.9271V35.55C32.9271 33.45 34.1021 32.225 35.9271 32.225H37.1771V28.7H36.2771C34.6021 28.7 33.5021 29.675 32.9271 30.825H32.8271L32.5271 28.925H29.3271V42ZM44.3939 42.225C47.9689 42.225 50.0439 40.15 50.3939 37.8H46.6689C46.4439 38.4 45.8189 39.1 44.3939 39.1C42.6439 39.1 41.8689 38.025 41.8439 36.5H50.5689V35.075C50.5689 31.525 48.3189 28.7 44.3189 28.7C40.0689 28.7 37.9189 31.775 37.9189 35.475C37.9189 39.225 40.2689 42.225 44.3939 42.225ZM41.8689 34.075C41.9439 32.825 42.6689 31.85 44.3189 31.85C45.8439 31.85 46.5689 32.825 46.6439 34.075H41.8689ZM55.8855 42.225C57.5105 42.225 58.6605 41.65 59.3855 40.825H59.4855L59.7605 42H63.2105V33.4C63.2105 30.675 61.0605 28.7 57.4855 28.7C53.6355 28.7 51.8605 30.8 51.8605 33.25H55.4605C55.4605 32.45 56.1605 31.8 57.3605 31.8C58.7855 31.8 59.3605 32.5 59.3605 33.4V34.475C58.8355 34.3 57.5355 34.1 56.5605 34.1C52.9605 34.1 51.3105 35.7 51.3105 38.125C51.3105 40.45 52.9355 42.225 55.8855 42.225ZM56.8605 39.225C55.7105 39.225 55.1105 38.675 55.1105 37.925C55.1105 37.225 55.7605 36.675 57.0105 36.675C57.7605 36.675 58.5605 36.775 59.3605 37.1V37.225C59.3605 38.3 58.4355 39.225 56.8605 39.225ZM73.0859 28.925V36.2C73.0859 37.7 72.4609 38.6 70.9609 38.6C69.4359 38.6 68.8109 37.7 68.8109 36.2V28.925H64.9609V36.775C64.9609 39.55 66.6609 42.225 70.9359 42.225C70.9359 42.225 70.9359 42.225 70.9609 42.225C75.2359 42.225 76.9359 39.55 76.9359 36.775V28.925H73.0859ZM80.8135 42.225C82.2385 42.225 83.0635 41.375 83.0635 39.975C83.0635 38.6 82.2385 37.75 80.8135 37.75C79.3385 37.75 78.5635 38.6 78.5635 39.975C78.5635 41.375 79.3385 42.225 80.8135 42.225Z" fill="#191F23"></path></svg> 