<svg id="Capa_1" enable-background="new 0 0 512 512" height="512" viewBox="0 0 512 512" width="512" xmlns="http://www.w3.org/2000/svg">
  <g>
    <g fill="url(#grad)">
      <defs>
        <linearGradient id="grad" x1="0%" y1="0%" x2="100%" y2="0%">
          <stop offset="0%" style="stop-color:#FE5B34;stop-opacity:1"/>
          <stop offset="100%" style="stop-color:#FE378C;stop-opacity:1"/>
        </linearGradient>
      </defs>
      <path d="m261.14 340.5h-21.741c-4.142 0-7.5 3.357-7.5 7.5s3.358 7.5 7.5 7.5h21.741c4.142 0 7.5-3.357 7.5-7.5s-3.358-7.5-7.5-7.5z"/><path
        d="m132.911 280.619c-31.473 0-57.079 25.605-57.079 57.079s25.605 57.079 57.079 57.079 57.079-25.605 57.079-57.079-25.606-57.079-57.079-57.079zm0 99.158c-23.202 0-42.079-18.877-42.079-42.079s18.876-42.079 42.079-42.079 42.079 18.877 42.079 42.079-18.877 42.079-42.079 42.079z"/><path
        d="m153.937 330.198h-13.526v-13.525c0-4.143-3.358-7.5-7.5-7.5s-7.5 3.357-7.5 7.5v13.525h-13.526c-4.142 0-7.5 3.357-7.5 7.5s3.358 7.5 7.5 7.5h13.526v13.526c0 4.143 3.358 7.5 7.5 7.5s7.5-3.357 7.5-7.5v-13.526h13.526c4.142 0 7.5-3.357 7.5-7.5s-3.358-7.5-7.5-7.5z"/><path
        d="m329.295 315.896c-12.022 0-21.803 9.78-21.803 21.803s9.781 21.804 21.803 21.804 21.804-9.781 21.804-21.804-9.782-21.803-21.804-21.803zm0 28.606c-3.751 0-6.803-3.052-6.803-6.804 0-3.751 3.052-6.803 6.803-6.803s6.804 3.052 6.804 6.803c0 3.752-3.053 6.804-6.804 6.804z"/><path
        d="m384.158 337.698c0 12.022 9.781 21.804 21.803 21.804s21.803-9.781 21.803-21.804-9.781-21.803-21.803-21.803-21.803 9.781-21.803 21.803zm28.606 0c0 3.752-3.052 6.804-6.803 6.804s-6.803-3.052-6.803-6.804c0-3.751 3.052-6.803 6.803-6.803s6.803 3.052 6.803 6.803z"/><path
        d="m367.628 321.169c12.022 0 21.803-9.781 21.803-21.804s-9.781-21.803-21.803-21.803-21.803 9.78-21.803 21.803 9.78 21.804 21.803 21.804zm0-28.606c3.751 0 6.803 3.052 6.803 6.803 0 3.752-3.052 6.804-6.803 6.804s-6.803-3.052-6.803-6.804 3.051-6.803 6.803-6.803z"/><path
        d="m367.628 354.228c-12.022 0-21.803 9.781-21.803 21.804s9.781 21.804 21.803 21.804 21.803-9.781 21.803-21.804-9.781-21.804-21.803-21.804zm0 28.607c-3.751 0-6.803-3.052-6.803-6.804s3.052-6.804 6.803-6.804 6.803 3.052 6.803 6.804-3.052 6.804-6.803 6.804z"/><path
        d="m97.429 85.513c2.752-4.129 4.36-9.082 4.36-14.405 0-14.36-11.683-26.043-26.043-26.043s-26.043 11.683-26.043 26.043c0 5.323 1.608 10.276 4.36 14.405-9.253 6.059-15.939 15.864-17.647 27.36-.498 3.353.488 6.75 2.706 9.321 2.227 2.582 5.458 4.063 8.866 4.063h55.515c3.408 0 6.64-1.48 8.866-4.063 2.218-2.571 3.204-5.969 2.706-9.322-1.707-11.495-8.393-21.3-17.646-27.359zm-21.683-25.448c6.089 0 11.043 4.954 11.043 11.043s-4.954 11.043-11.043 11.043-11.043-4.954-11.043-11.043 4.954-11.043 11.043-11.043zm-23.605 51.193c2.308-7.228 7.883-12.956 14.853-15.624 2.737.979 5.682 1.517 8.752 1.517s6.015-.538 8.751-1.517c6.971 2.667 12.546 8.396 14.854 15.624z"/><path
        d="m512 163.04c0-41.767-33.979-75.746-75.746-75.746-12.563 0-24.411 3.092-34.852 8.528-34.936-45.24-89.682-74.44-151.132-74.44-40.056 0-77.269 12.403-108.002 33.568-2.154-3.967-4.656-7.753-7.507-11.292-2.598-3.226-7.32-3.733-10.546-1.136-3.225 2.6-3.733 7.32-1.135 10.546 8.775 10.892 13.413 24.06 13.413 38.079 0 33.495-27.251 60.746-60.747 60.746s-60.746-27.25-60.746-60.746 27.25-60.747 60.746-60.747c7.369 0 14.566 1.303 21.393 3.872 3.875 1.459 8.202-.5 9.661-4.378 1.459-3.877-.501-8.202-4.378-9.661-8.521-3.207-17.496-4.833-26.676-4.833-41.767 0-75.746 33.981-75.746 75.747 0 38.133 28.329 69.759 65.045 74.976-3.685 14.78-5.654 30.232-5.654 46.138 0 23.592 4.316 46.192 12.178 67.068-13.775 14.469-22.496 33.776-23.312 55.087l-.083 111.195c0 28.114 22.873 50.987 50.987 50.987 19.557 0 37.626-11.409 46.034-29.066l25.8-54.179c2.45-1.24 4.833-2.594 7.141-4.057 5.022 11.188 16.26 19.004 29.297 19.004 13.211 0 24.581-8.024 29.5-19.453h26.676c4.919 11.429 16.289 19.453 29.5 19.453 13.036 0 24.275-7.816 29.297-19.004 2.308 1.464 4.69 2.817 7.141 4.058l25.8 54.179c8.408 17.657 26.477 29.066 46.034 29.066 28.114 0 50.987-22.873 50.987-50.987v-12.112c0-4.143-3.358-7.5-7.5-7.5s-7.5 3.357-7.5 7.5v12.112c0 19.844-16.144 35.987-35.987 35.987-13.803 0-26.556-8.053-32.491-20.516l-19.333-40.6c5.825 1.273 11.87 1.952 18.073 1.952 28.889 0 54.435-14.542 69.738-36.679v12.744c0 4.143 3.358 7.5 7.5 7.5s7.5-3.357 7.5-7.5v-60.802c0-22.607-8.916-43.157-23.394-58.367 4.871-12.937 8.382-26.535 10.343-40.623 40.349-1.613 72.683-34.928 72.683-75.668zm-123.19-58.986c-5.078 4.093-9.622 8.82-13.502 14.071h-39.126c-4.046-14.01-9.02-27.074-14.869-38.865-7.513-15.146-16.132-27.529-25.547-36.899 37.359 10.014 69.842 32.052 93.044 61.693zm-15.733 100.708h-24.419c-.489-25.093-3.425-49.341-8.584-71.637h26.604c-3.964 9.183-6.17 19.295-6.17 29.915-.001 15.408 4.635 29.748 12.569 41.722zm-24.419 15h37.473c10.526 9.313 23.645 15.751 38.13 18.065-1.558 10.647-4.075 20.985-7.457 30.928-13.878-9.927-30.849-15.794-49.176-15.794-7.396 0-14.572.958-21.416 2.747 1.376-11.698 2.207-23.719 2.446-35.946zm-90.888-182.641c18.563 3.624 36.127 20.627 50.105 48.805 4.88 9.837 9.113 20.643 12.667 32.199h-62.772zm-7.5 117.879c4.142 0 7.5-3.357 7.5-7.5v-14.375h66.9c5.397 22.087 8.477 46.378 8.986 71.637h-75.886v-22.262c0-4.143-3.358-7.5-7.5-7.5s-7.5 3.357-7.5 7.5v22.262h-75.886c.51-25.259 3.589-49.55 8.986-71.637h66.9v14.375c0 4.143 3.357 7.5 7.5 7.5zm20.43 117.681-5.126 16.065c-.186.582-.722.974-1.333.974h-27.94c-.612 0-1.148-.392-1.334-.975l-5.126-16.064zm-101.029-15c-1.579-12.277-2.527-24.967-2.788-37.919h75.886v37.919zm88.099 0v-37.919h75.886c-.261 12.952-1.209 25.642-2.788 37.919zm-15-220.56v81.004h-62.773c3.555-11.556 7.787-22.362 12.667-32.199 13.978-28.178 31.542-45.182 50.106-48.805zm-94.561 32.009c16.887-12.076 35.982-21.253 56.565-26.77-9.414 9.37-18.034 21.753-25.547 36.899-5.849 11.791-10.823 24.855-14.869 38.865h-17.848c3.208-8.387 4.983-17.477 4.983-26.978 0-7.492-1.127-14.916-3.284-22.016zm-67.805 97.606c24.318-1.483 45.57-14.483 58.355-33.611h21.706c-5.158 22.296-8.095 46.544-8.584 71.637h-77.32c.552-13.096 2.567-25.816 5.843-38.026zm71.478 53.026c.238 12.228 1.07 24.248 2.445 35.947-6.844-1.789-14.019-2.747-21.416-2.747-18.331 0-35.307 5.87-49.187 15.802-5.269-15.485-8.443-31.93-9.163-49.001h77.321zm-20.231 241.322c-5.935 12.463-18.688 20.516-32.491 20.516-19.843 0-35.987-16.144-35.987-35.987v-59.855c15.303 22.137 40.849 36.679 69.738 36.679 6.203 0 12.248-.679 18.074-1.952zm43.852-68.222c-11.791 9.125-26.563 14.575-42.592 14.575-38.454 0-69.738-31.284-69.738-69.738 0-38.453 31.284-69.737 69.738-69.737s69.738 31.284 69.738 69.737c0 10.062-2.159 19.624-6.011 28.271-11.402 4.083-19.843 14.439-21.135 26.892zm31.928 20.439c-9.43 0-17.102-7.672-17.102-17.102s7.672-17.102 17.102-17.102 17.102 7.672 17.102 17.102-7.672 17.102-17.102 17.102zm53.671-19.453h-21.665c-1.068-14.659-12.016-26.612-26.203-29.214 2.853-8.466 4.414-17.519 4.414-26.935 0-26.093-11.862-49.461-30.469-65.018h26.914l6.582 20.625c2.179 6.827 8.458 11.414 15.624 11.414h27.94c7.167 0 13.446-4.587 15.624-11.414l6.582-20.625h26.914c-18.607 15.556-30.469 38.924-30.469 65.018 0 9.416 1.561 18.469 4.414 26.935-14.186 2.602-25.135 14.554-26.202 29.214zm32.006 19.453c-9.43 0-17.102-7.672-17.102-17.102s7.672-17.102 17.102-17.102 17.102 7.672 17.102 17.102-7.672 17.102-17.102 17.102zm144.258-75.603c0 38.454-31.284 69.738-69.738 69.738-16.029 0-30.801-5.45-42.592-14.575-1.292-12.452-9.733-22.809-21.135-26.892-3.852-8.648-6.011-18.21-6.011-28.271 0-38.453 31.284-69.737 69.738-69.737s69.738 31.284 69.738 69.737zm-61.859-174.658c0-33.495 27.251-60.746 60.747-60.746s60.746 27.251 60.746 60.746-27.25 60.746-60.746 60.746-60.747-27.251-60.747-60.746z"/><path
        d="m457.937 157.406c2.752-4.129 4.36-9.082 4.36-14.405 0-14.36-11.683-26.043-26.043-26.043s-26.043 11.683-26.043 26.043c0 5.323 1.608 10.276 4.36 14.405-9.253 6.059-15.939 15.865-17.647 27.361-.498 3.353.488 6.75 2.707 9.322 2.227 2.582 5.458 4.063 8.866 4.063h55.515c3.408 0 6.639-1.48 8.866-4.063 2.218-2.572 3.205-5.97 2.707-9.323-1.71-11.496-8.395-21.301-17.648-27.36zm-21.683-25.448c6.089 0 11.043 4.954 11.043 11.043s-4.954 11.043-11.043 11.043-11.043-4.954-11.043-11.043 4.954-11.043 11.043-11.043zm-23.606 51.193c2.308-7.228 7.884-12.957 14.854-15.625 2.737.979 5.682 1.517 8.751 1.517s6.014-.538 8.751-1.517c6.971 2.668 12.546 8.397 14.854 15.625z"/></g>
  </g>
</svg>
