<?xml version="1.0" encoding="UTF-8"?>
<svg width="1437px" height="410px" viewBox="0 0 1437 410" version="1.1" xmlns="http://www.w3.org/2000/svg" xmlns:xlink="http://www.w3.org/1999/xlink">
    <title>nexus-logo-white</title>
    <g id="Page-1" stroke="none" stroke-width="1" fill="none" fill-rule="evenodd">
        <g id="nexus-logo-white" fill="#FFFFFF">
            <g id="nexus-logo" fill-rule="nonzero">
                <g id="Group" transform="translate(195.000000, 195.900000) scale(-1, 1) rotate(-180.000000) translate(-195.000000, -195.900000) translate(0.000000, 0.900000)">
                    <path d="M176.7,388.9 C167.4,388.2 150.3,385.4 147,384.2 C146.2,383.9 144.9,383.5 144.1,383.3 C143.3,383.2 141.5,382.7 140.1,382.3 C138.7,381.9 137.3,381.5 137,381.4 C133.8,380.7 124.2,377.1 119.2,374.8 C115.7,373.2 112.7,371.9 112.4,371.9 C112.1,371.9 108.8,370.1 105,368 C101.3,365.8 97.9,364.3 97.6,364.7 C97.3,365 97,364.8 97,364.3 C97,363.8 95.3,362.5 93.3,361.4 C88.2,358.8 80.9,353.9 76,349.8 C74.6,348.6 71.9,346.5 70,345.1 C65.4,341.8 48.6,324.8 43.5,318.4 C41.3,315.7 39.3,313.2 39,312.9 C38.7,312.6 35.8,308.4 32.6,303.4 C29.3,298.5 25.9,293.3 25,291.9 C20.4,285 11.4,263.8 7.7,251.4 C1.2,229.1 -0.1,219.8 0.1,194.9 C0.2,172.8 1.3,162.9 5.6,146.2 C11.1,124.4 19.7,105.4 32.9,85.8 C42,72.2 43.7,70.1 53.8,59.4 C80,31.7 118.5,10.5 155,3.6 C174.5,-0.1 177.5,-0.3 198.5,0.2 C221.1,0.7 234.6,2.6 250.2,7.5 C290.5,20 322.3,41.9 350,76.5 C365.8,96.2 381.9,132.4 386.4,158.4 C392.4,193.1 389.9,227.3 378.8,259.4 C374.6,271.6 365.6,289.6 357.4,302.1 C353.7,307.8 350.1,312.9 349.6,313.5 C349,314.1 346.5,317.1 344.1,320 C337.2,328.3 324.9,340.3 314.2,349 C302.6,358.6 277.8,372.2 260.6,378.4 C249.8,382.3 228.5,387.4 219.5,388.2 C207.4,389.4 186.3,389.7 176.7,388.9 Z M198.3,372.7 C201.4,369.1 217,348.2 217,347.5 C217,347.1 218.2,345 219.7,342.6 C221.2,340.3 223.2,337.1 224.2,335.4 C227.4,330.1 236.8,310.5 238.7,305.4 L240.5,300.4 L237.1,297.4 C235.2,295.8 232.5,292.6 231.1,290.4 L228.5,286.4 L219,286.4 C209.1,286.4 187,285 185.8,284.3 C185.4,284.1 181.6,283.4 177.3,282.9 C161,280.9 131.6,272.6 115.5,265.5 C112.4,264.1 109.5,262.9 109.1,262.9 C108.8,262.9 107.4,263.9 106,265.2 C104.6,266.4 102.3,268.2 100.8,269.2 C97.1,271.5 85.4,274.2 82,273.4 C79.4,272.8 79.3,273 77.7,280.1 C75.1,291.9 73.9,300.7 73.2,314.6 C72.4,329.2 71.9,327.6 79.6,333.4 C81,334.5 83,336.1 84,337 C84.9,337.9 87.9,340.1 90.6,341.9 C93.3,343.8 95.7,345.5 96,345.9 C96.3,346.2 98.3,347.4 100.5,348.6 C108.6,352.8 111.5,354.4 112,355 C112.5,355.7 121.1,359.5 131.6,363.7 C145.2,369.3 172.3,374.6 187.9,374.8 C195.4,374.9 196.5,374.7 198.3,372.7 Z M225,372.3 C232.2,371.1 232.3,371.1 236.5,369.9 C238.7,369.3 242.6,368.2 245.2,367.6 C247.7,366.9 250.2,366.1 250.6,365.6 C251,365.2 252.1,364.9 253,364.9 C256.1,364.9 277.8,354.8 287.6,348.8 C303.2,339.3 319.8,325.3 330.8,312.3 L334.1,308.4 L331.8,307.8 C330.5,307.4 325.2,306.1 320,304.9 C314.8,303.7 306.9,301.5 302.5,300.1 C298.1,298.7 294.3,297.5 294,297.4 C293.7,297.3 292.2,296.9 290.5,296.4 C288.9,296 286.9,295.2 286.2,294.6 C285.3,293.9 283.9,294.5 281.2,297.1 C279.2,299.1 276.4,301.2 275,301.9 C271.3,303.8 263,305.9 258.8,305.9 C255.7,305.9 254.8,306.4 253.5,308.9 C252.7,310.5 252,312.3 252,312.8 C252,314.8 239.7,339.4 234.7,347.4 C228.7,356.9 221.9,367.3 218.8,371.3 C216.8,374 216.8,374.1 218.6,373.6 C219.6,373.3 222.5,372.7 225,372.3 Z M58.6,305.8 C58.9,302.8 59.5,297.7 60,294.4 C60.5,291.1 61.2,286.4 61.5,283.9 C61.9,281.4 62.8,276.7 63.5,273.5 L64.9,267.5 L61.6,264.5 C56.5,259.9 53.3,253.9 52,246.9 C51,241.6 51.4,231.7 52.6,229.7 C52.8,229.4 51.9,228.2 50.5,227.1 C41.2,219.7 19.4,199.1 16.7,195 C15.8,193.6 14.8,192.8 14.4,193.1 C13.9,193.7 15.5,217.9 16.5,222.9 C16.8,224.3 17.3,227.7 17.6,230.4 C18,233.2 18.6,235.9 19,236.4 C19.4,237 20.3,240.1 21,243.3 C22.2,249.1 22.8,250.9 25.7,257.6 C26.4,259.4 27.8,262.8 28.6,265.1 C32.6,276.4 55.8,313.4 57.8,311.5 C58,311.3 58.3,308.7 58.6,305.8 Z M346,291.9 C348.7,289.8 359.5,268.2 363.5,256.9 C368.5,242.8 368.5,242.9 364.7,245.3 C349.1,255.3 307.8,273.9 301.2,273.9 C300.2,273.9 299,274.2 298.6,274.6 C298.3,275 297.2,275.4 296.4,275.5 C293.4,276 292.3,276.7 291.8,278.7 C291.3,280.4 292.5,281 300.4,283.6 C314.1,288.2 329.7,292.1 339,293.4 C341.5,293.8 343.7,294.3 344,294.5 C344.2,294.8 344.6,294.4 344.9,293.7 C345.1,293 345.6,292.2 346,291.9 Z M269.5,287.1 C274.5,283.7 277.5,277.9 277.4,271.8 C277.3,266.3 274.9,261.7 269.7,257.5 C266.3,254.8 265.1,254.4 259.7,254.5 C248.8,254.6 241,262 241,272.3 C241,279.8 246.7,288.2 252.9,289.5 C254.3,289.8 256,290.2 256.5,290.4 C259.1,291.4 265.9,289.6 269.5,287.1 Z M226.2,267.8 C226.5,264.2 226.2,263.5 223.5,261.6 C219.9,259 218.5,257.9 216.2,255.9 C215.3,255 212.7,253 210.5,251.4 C199.6,243.5 179.4,223 168.5,208.9 C165.8,205.3 163.2,202.2 162.9,201.9 C162.4,201.5 156.1,192.3 153.5,188.2 C153,187.3 150.9,184.2 149,181.2 L145.4,175.8 L135.1,175.7 C125.2,175.5 124.6,175.6 122.9,178 C121.8,179.3 120.6,180.9 120,181.6 C118.7,183.2 109.8,196.9 108.4,199.4 C107.8,200.5 106.1,203.6 104.6,206.3 L101.9,211.2 L106.2,215 C114.6,222.1 119.8,236.9 117.2,246.2 C116.2,249.7 116.3,249.9 118.8,250.5 C120.3,250.9 122,251.5 122.5,251.9 C123.1,252.2 125.8,253.4 128.5,254.3 C131.3,255.3 134.9,256.7 136.7,257.5 C138.4,258.3 140.4,258.9 141,258.9 C141.7,258.9 144.8,259.8 147.9,260.8 C159.6,264.9 184.3,269.4 200.5,270.5 C205.5,270.8 209.7,271.3 209.9,271.5 C210.1,271.7 213.8,271.9 218.1,271.9 L225.8,271.9 L226.2,267.8 Z M298.3,259.3 C301.2,258.4 304.9,257.1 306.5,256.4 C308.2,255.6 312.8,253.8 316.8,252.4 C327.8,248.5 349.4,237.1 361.7,228.8 L372.6,221.5 L373.8,211.4 C375.4,198.1 375.3,190.3 373.5,175.1 C370.7,152.6 365.4,134.7 355.8,115 C350.3,103.9 338.9,86.7 330.3,76.4 L327.1,72.5 L312.3,73.7 C304.2,74.3 294.4,75.3 290.5,75.8 C283.9,76.8 281.3,77.3 270.5,80 L266,81.2 L266,87.3 C266,94.1 263.4,100.6 258.2,106.8 L255.4,110.2 L258.7,119.8 C264.7,137.1 268.9,155.9 271.7,177.9 C272.7,185.8 272.8,228.3 271.8,235.9 L271.1,241.4 L274.9,243.2 C279.7,245.4 286.2,251.9 288.6,257 C290.8,261.4 291.2,261.5 298.3,259.3 Z M94.1,255.3 C96.3,254 98.6,251.7 99.2,250.4 C99.8,249 100.7,247.9 101.1,247.9 C101.5,247.9 102.1,245.6 102.5,242.9 C103.5,235.8 99.7,228 93.6,224.4 C88.9,221.6 80.6,221 76.7,223 C69.8,226.6 65.5,234.9 66.3,242.9 C66.7,247.1 73,255.9 75.6,255.9 C76.4,255.9 77,256.3 77,256.8 C77,257.3 78.2,258 79.8,258.2 C84.6,259 90,257.9 94.1,255.3 Z M237,247.6 C239.8,245 249.2,240.3 253.1,239.5 C256.7,238.7 257.1,236.9 257.7,213.1 C258.4,188.1 257,174.5 251.3,149.9 C247.4,133.1 247,131.5 246.1,129.4 C245.6,128.3 244.4,125.1 243.6,122.3 L242,117.3 L236,117.7 C226.2,118.4 216.8,115.1 209.9,108.4 L206.2,104.9 L199.9,108.5 C194.1,111.7 183.2,118.7 182,119.9 C181.7,120.2 178.5,122.7 174.7,125.4 C168.1,130.3 168,130.5 168.7,133.9 C171,144.3 168.4,155.8 161.9,164 L158.8,167.9 L163.5,175.5 C177.4,198.4 201.4,225.2 223,241.9 C225.5,243.8 227.7,245.6 228,245.9 C228.8,246.8 233.4,249.9 234,249.9 C234.3,249.9 235.6,248.9 237,247.6 Z M66,212.3 C70.2,209.3 72.5,208.4 79.2,207.5 L87.4,206.3 L91.1,199.4 C93.2,195.5 95.6,191.5 96.4,190.4 C97.3,189.4 98,188.1 98,187.6 C98,186.7 105.5,175.6 108.2,172.5 C109.2,171.4 110.2,169.7 110.6,168.7 C110.9,167.7 111.6,166.9 112.1,166.9 C112.6,166.9 112.1,166 111.1,165 C110.1,164 107.8,160.2 106.1,156.6 C103.5,151.3 103,148.9 103,143.1 C103,131.5 108.7,120.6 117.6,115.3 C119.3,114.3 119.3,113.9 117.1,104.3 C115.8,98.9 114.3,92.4 113.9,89.9 C112,79.8 109,52.9 109,45.2 C109,40.6 108.7,36.9 108.4,36.9 C108,36.9 105.5,38.2 102.8,39.9 C100.2,41.5 97.7,42.9 97.4,42.9 C97.2,42.9 96.4,43.3 95.7,43.9 C95,44.4 90.8,47.6 86.3,50.9 C69.8,62.9 47.2,88.3 38.5,104.7 C36.8,107.8 34.7,111.8 33.8,113.4 C31.3,118 27,127.5 27,128.3 C27,128.8 26.4,130.5 25.6,132.2 C22,140.2 16.8,161.2 16.6,168.5 C16.5,171.8 20.7,177.3 35,192.3 C41,198.6 59.7,215.7 60.7,215.9 C60.9,215.9 63.3,214.3 66,212.3 Z M144.3,159.3 C150.4,156.2 155,148.8 155,142.2 C155,138.7 150.1,130.4 146.6,128.1 C140.9,124.2 136.4,123.5 131.1,125.4 C125.5,127.5 122.4,130.2 119.9,135.1 C113.9,146.7 122.6,160.7 135.8,160.8 C138.8,160.9 142.5,160.2 144.3,159.3 Z M166.4,112.5 C170.3,109.5 179.4,103.4 186.5,98.9 L199.5,90.8 L200.1,83 C200.8,74.5 204,66.7 208.5,62.5 C211.3,59.8 211.5,59.3 209.8,57.4 C209.1,56.7 207.6,54.9 206.5,53.3 C201.4,46.2 189.1,32 181.2,24.3 L172.5,15.9 L168,16.5 C156.9,18 134.9,24 127.2,27.6 L123.9,29.2 L124.1,41.3 C124.3,53.5 126.8,77.6 129,87.9 C129.6,90.9 130.4,94.8 130.7,96.4 C131,98.1 131.9,101.6 132.8,104.4 C134.4,109 134.7,109.4 138,109.5 C143.5,109.7 149.1,111.6 154,114.8 C156.5,116.4 158.7,117.8 158.9,117.8 C159.1,117.9 162.5,115.5 166.4,112.5 Z M241.9,100.3 C248.4,96.8 250.4,93.7 250.8,86.3 C251.5,76 246.8,69.4 236.8,66.8 C232.9,65.7 231.6,65.8 227.9,67.3 C222.2,69.4 219.7,71.7 217.1,76.5 C213.5,83.2 214.5,91.1 219.8,96.5 C226.5,103.4 234,104.7 241.9,100.3 Z M273,63.9 C283.6,61.5 301.6,58.9 306.9,58.9 C309.2,58.9 311,58.7 311,58.4 C311,57.6 307.7,54.6 302,50.3 C280.1,34 254.2,22.7 226.5,17.4 C224.9,17.1 222.4,16.6 221,16.3 C219.6,16 212.9,15.5 206.1,15.2 L193.6,14.6 L202.9,25 C208.1,30.7 214.5,38.3 217.1,41.9 C219.8,45.5 222.4,48.9 223,49.6 C223.5,50.3 224,51.3 224,51.9 C224,52.5 224.5,52.7 225,52.4 C227,51.2 236.4,50.9 240.4,52 C247.9,53.9 251.8,56.2 256.6,61.4 C261.3,66.3 261.7,66.5 265,65.7 C266.9,65.2 270.5,64.4 273,63.9 Z" id="Shape"></path>
                </g>
            </g>
            <text id="Nexus" font-family="Roboto-Thin, Roboto" font-size="350" font-weight="300">
                <tspan x="478" y="325">Nexus</tspan>
            </text>
        </g>
    </g>
</svg>