<?xml version="1.0" standalone="no"?>
<!DOCTYPE svg PUBLIC "-//W3C//DTD SVG 20010904//EN"
 "http://www.w3.org/TR/2001/REC-SVG-20010904/DTD/svg10.dtd">
<svg version="1.0" xmlns="http://www.w3.org/2000/svg"
 width="1204.000000pt" height="394.000000pt" viewBox="0 0 1204.000000 394.000000"
 preserveAspectRatio="xMidYMid meet">
<metadata>
Created by potrace 1.16, written by Peter Selinger 2001-2019
</metadata>
<g transform="translate(0.000000,394.000000) scale(0.100000,-0.100000)"
fill="#FFFFFF" stroke="none">
<defs>
  <linearGradient id="grad1" x1="0%" y1="0%" x2="100%" y2="0%">
    <stop offset="0%" style="stop-color:#FE5B34;stop-opacity:1"/>
    <stop offset="100%" style="stop-color:#FE378C;stop-opacity:1"/>
  </linearGradient>
</defs>
<path fill="url(#grad1)" d="M1827 3910 c-93 -7 -264 -35 -297 -47 -8 -3 -21 -7 -29 -9 -8 -1 -26
-6 -40 -10 -14 -4 -28 -8 -31 -9 -32 -7 -128 -43 -178 -66 -35 -16 -65 -29
-68 -29 -3 0 -36 -18 -74 -39 -37 -22 -71 -37 -74 -33 -3 3 -6 1 -6 -4 0 -5
-17 -18 -37 -29 -51 -26 -124 -75 -173 -116 -14 -12 -41 -33 -60 -47 -46 -33
-214 -203 -265 -267 -22 -27 -42 -52 -45 -55 -3 -3 -32 -45 -64 -95 -33 -49
-67 -101 -76 -115 -46 -69 -136 -281 -173 -405 -65 -223 -78 -316 -76 -565 1
-221 12 -320 55 -487 55 -218 141 -408 273 -604 91 -136 108 -157 209 -264
262 -277 647 -489 1012 -558 195 -37 225 -39 435 -34 226 5 361 24 517 73 403
125 721 344 998 690 158 197 319 559 364 819 60 347 35 689 -76 1010 -42 122
-132 302 -214 427 -37 57 -73 108 -78 114 -6 6 -31 36 -55 65 -69 83 -192 203
-299 290 -116 96 -364 232 -536 294 -108 39 -321 90 -411 98 -121 12 -332 15
-428 7z m216 -162 c31 -36 187 -245 187 -252 0 -4 12 -25 27 -49 15 -23 35
-55 45 -72 32 -53 126 -249 145 -300 l18 -50 -34 -30 c-19 -16 -46 -48 -60
-70 l-26 -40 -95 0 c-99 0 -320 -14 -332 -21 -4 -2 -42 -9 -85 -14 -163 -20
-457 -103 -618 -174 -31 -14 -60 -26 -64 -26 -3 0 -17 10 -31 23 -14 12 -37
30 -52 40 -37 23 -154 50 -188 42 -26 -6 -27 -4 -43 67 -26 118 -38 206 -45
345 -8 146 -13 130 64 188 14 11 34 27 44 36 9 9 39 31 66 49 27 19 51 36 54
40 3 3 23 15 45 27 81 42 110 58 115 64 5 7 91 45 196 87 136 56 407 109 563
111 75 1 86 -1 104 -21z m267 -4 c72 -12 73 -12 115 -24 22 -6 61 -17 87 -23
25 -7 50 -15 54 -20 4 -4 15 -7 24 -7 31 0 248 -101 346 -161 156 -95 322
-235 432 -365 l33 -39 -23 -6 c-13 -4 -66 -17 -118 -29 -52 -12 -131 -34 -175
-48 -44 -14 -82 -26 -85 -27 -3 -1 -18 -5 -35 -10 -16 -4 -36 -12 -43 -18 -9
-7 -23 -1 -50 25 -20 20 -48 41 -62 48 -37 19 -120 40 -162 40 -31 0 -40 5
-53 30 -8 16 -15 34 -15 39 0 20 -123 266 -173 346 -60 95 -128 199 -159 239
-20 27 -20 28 -2 23 10 -3 39 -9 64 -13z m-1664 -665 c3 -30 9 -81 14 -114 5
-33 12 -80 15 -105 4 -25 13 -72 20 -104 l14 -60 -33 -30 c-51 -46 -83 -106
-96 -176 -10 -53 -6 -152 6 -172 2 -3 -7 -15 -21 -26 -93 -74 -311 -280 -338
-321 -9 -14 -19 -22 -23 -19 -5 6 11 248 21 298 3 14 8 48 11 75 4 28 10 55
14 60 4 6 13 37 20 69 12 58 18 76 47 143 7 18 21 52 29 75 40 113 272 483
292 464 2 -2 5 -28 8 -57z m2874 -139 c27 -21 135 -237 175 -350 50 -141 50
-140 12 -116 -156 100 -569 286 -635 286 -10 0 -22 3 -26 7 -3 4 -14 8 -22 9
-30 5 -41 12 -46 32 -5 17 7 23 86 49 137 46 293 85 386 98 25 4 47 9 50 11 2
3 6 -1 9 -8 2 -7 7 -15 11 -18z m-765 -48 c50 -34 80 -92 79 -153 -1 -55 -25
-101 -77 -143 -34 -27 -46 -31 -100 -30 -109 1 -187 75 -187 178 0 75 57 159
119 172 14 3 31 7 36 9 26 10 94 -8 130 -33z m-433 -193 c3 -36 0 -43 -27 -62
-36 -26 -50 -37 -73 -57 -9 -9 -35 -29 -57 -45 -109 -79 -311 -284 -420 -425
-27 -36 -53 -67 -56 -70 -5 -4 -68 -96 -94 -137 -5 -9 -26 -40 -45 -70 l-36
-54 -103 -1 c-99 -2 -105 -1 -122 23 -11 13 -23 29 -29 36 -13 16 -102 153
-116 178 -6 11 -23 42 -38 69 l-27 49 43 38 c84 71 136 219 110 312 -10 35 -9
37 16 43 15 4 32 10 37 14 6 3 33 15 60 24 28 10 64 24 82 32 17 8 37 14 43
14 7 0 38 9 69 19 117 41 364 86 526 97 50 3 92 8 94 10 2 2 39 4 82 4 l77 0
4 -41z m721 -85 c29 -9 66 -22 82 -29 17 -8 63 -26 103 -40 110 -39 326 -153
449 -236 l109 -73 12 -101 c16 -133 15 -211 -3 -363 -28 -225 -81 -404 -177
-601 -55 -111 -169 -283 -255 -386 l-32 -39 -148 12 c-81 6 -179 16 -218 21
-66 10 -92 15 -200 42 l-45 12 0 61 c0 68 -26 133 -78 195 l-28 34 33 96 c60
173 102 361 130 581 10 79 11 504 1 580 l-7 55 38 18 c48 22 113 87 137 138
22 44 26 45 97 23z m-2042 -40 c22 -13 45 -36 51 -49 6 -14 15 -25 19 -25 4 0
10 -23 14 -50 10 -71 -28 -149 -89 -185 -47 -28 -130 -34 -169 -14 -69 36
-112 119 -104 199 4 42 67 130 93 130 8 0 14 4 14 9 0 5 12 12 28 14 48 8 102
-3 143 -29z m1429 -77 c28 -26 122 -73 161 -81 36 -8 40 -26 46 -264 7 -250
-7 -386 -64 -632 -39 -168 -43 -184 -52 -205 -5 -11 -17 -43 -25 -71 l-16 -50
-60 4 c-98 7 -192 -26 -261 -93 l-37 -35 -63 36 c-58 32 -167 102 -179 114 -3
3 -35 28 -73 55 -66 49 -67 51 -60 85 23 104 -3 219 -68 301 l-31 39 47 76
c139 229 379 497 595 664 25 19 47 37 50 40 8 9 54 40 60 40 3 0 16 -10 30
-23z m-1710 -353 c42 -30 65 -39 132 -48 l82 -12 37 -69 c21 -39 45 -79 53
-90 9 -10 16 -23 16 -28 0 -9 75 -120 102 -151 10 -11 20 -28 24 -38 3 -10 10
-18 15 -18 5 0 0 -9 -10 -19 -10 -10 -33 -48 -50 -84 -26 -53 -31 -77 -31
-135 0 -116 57 -225 146 -278 17 -10 17 -14 -5 -110 -13 -54 -28 -119 -32
-144 -19 -101 -49 -370 -49 -447 0 -46 -3 -83 -6 -83 -4 0 -29 13 -56 30 -26
16 -51 30 -54 30 -2 0 -10 4 -17 10 -7 5 -49 37 -94 70 -165 120 -391 374
-478 538 -17 31 -38 71 -47 87 -25 46 -68 141 -68 149 0 5 -6 22 -14 39 -36
80 -88 290 -90 363 -1 33 41 88 184 238 60 63 247 234 257 236 2 0 26 -16 53
-36z m783 -530 c61 -31 107 -105 107 -171 0 -35 -49 -118 -84 -141 -57 -39
-102 -46 -155 -27 -56 21 -87 48 -112 97 -60 116 27 256 159 257 30 1 67 -6
85 -15z m221 -468 c39 -30 130 -91 201 -136 l130 -81 6 -78 c7 -85 39 -163 84
-205 28 -27 30 -32 13 -51 -7 -7 -22 -25 -33 -41 -51 -71 -174 -213 -253 -290
l-87 -84 -45 6 c-111 15 -331 75 -408 111 l-33 16 2 121 c2 122 27 363 49 466
6 30 14 69 17 85 3 17 12 52 21 80 16 46 19 50 52 51 55 2 111 21 160 53 25
16 47 30 49 30 2 1 36 -23 75 -53z m755 -122 c65 -35 85 -66 89 -140 7 -103
-40 -169 -140 -195 -39 -11 -52 -10 -89 5 -57 21 -82 44 -108 92 -36 67 -26
146 27 200 67 69 142 82 221 38z m311 -364 c106 -24 286 -50 339 -50 23 0 41
-2 41 -5 0 -8 -33 -38 -90 -81 -219 -163 -478 -276 -755 -329 -16 -3 -41 -8
-55 -11 -14 -3 -81 -8 -149 -11 l-125 -6 93 104 c52 57 116 133 142 169 27 36
53 70 59 77 5 7 10 17 10 23 0 6 5 8 10 5 20 -12 114 -15 154 -4 75 19 114 42
162 94 47 49 51 51 84 43 19 -5 55 -13 80 -18z"/>
<path d="M4883 2828 c-7 -12 -12 -252 -29 -1520 l-7 -528 45 0 45 0 7 368 c4
202 11 621 16 932 5 311 9 570 10 575 0 6 22 -24 49 -65 28 -41 53 -79 58 -85
11 -13 78 -116 201 -305 56 -85 105 -159 109 -165 5 -5 17 -23 27 -40 11 -16
23 -34 28 -40 5 -5 56 -82 113 -170 58 -88 108 -165 113 -170 5 -6 17 -24 28
-40 10 -17 23 -34 27 -40 5 -5 42 -62 82 -125 41 -63 78 -119 82 -125 5 -5 68
-100 141 -210 72 -110 135 -205 139 -210 5 -6 24 -34 43 -63 33 -49 38 -52 76
-52 l42 0 6 192 c3 106 8 360 11 563 2 204 7 580 11 838 l7 467 -42 0 c-24 0
-43 -5 -46 -12 -2 -7 -9 -380 -16 -828 -6 -448 -14 -864 -18 -924 l-6 -108
-105 162 c-58 89 -110 167 -115 173 -6 7 -70 102 -143 212 -73 110 -136 205
-140 210 -16 22 -129 189 -154 228 -14 23 -30 47 -35 52 -5 6 -20 28 -33 50
-13 22 -28 45 -33 50 -11 13 -140 208 -175 264 -15 24 -33 49 -40 57 -7 7 -23
30 -35 51 -26 45 -179 276 -187 283 -3 3 -17 23 -30 45 -35 57 -44 65 -84 65
-19 0 -38 -6 -43 -12z"/>
<path d="M7195 2289 c-27 -4 -59 -12 -70 -17 -11 -6 -40 -19 -65 -31 -140 -65
-262 -205 -324 -371 -49 -129 -59 -194 -59 -375 -1 -195 11 -259 73 -390 68
-144 145 -231 274 -309 103 -62 173 -79 321 -80 126 -1 155 3 261 40 78 27
202 125 234 183 11 22 10 26 -11 42 -13 10 -29 19 -35 19 -6 0 -37 -25 -69
-56 -228 -215 -607 -180 -810 76 -29 37 -75 108 -75 117 0 5 -7 21 -15 37 -33
62 -55 178 -55 284 l0 104 78 -6 c42 -3 298 -7 567 -8 l490 -3 3 70 c3 71 -15
202 -40 285 -24 81 -87 185 -146 242 -62 58 -123 101 -162 113 -14 4 -30 11
-35 16 -31 24 -227 35 -330 18z m268 -104 c136 -46 219 -122 285 -259 37 -77
57 -153 64 -241 l3 -40 -230 -3 c-127 -2 -361 0 -521 3 l-291 7 8 42 c31 153
85 259 184 360 141 143 321 190 498 131z"/>
<path d="M8020 2255 c0 -8 25 -47 88 -135 29 -41 58 -83 65 -94 6 -10 17 -24
22 -30 6 -6 32 -45 60 -86 27 -41 52 -77 55 -80 3 -3 28 -39 55 -80 28 -41 55
-80 60 -87 21 -25 31 -40 72 -98 l41 -61 -70 -94 c-38 -52 -77 -104 -86 -115
-10 -11 -28 -36 -42 -55 -13 -19 -28 -39 -32 -45 -5 -5 -36 -48 -70 -95 -72
-98 -63 -86 -125 -167 -27 -34 -59 -78 -73 -98 -14 -20 -35 -48 -47 -63 -36
-42 -30 -52 30 -52 55 0 62 5 100 63 10 16 25 36 32 45 18 22 65 84 87 114 44
61 128 174 136 184 5 6 37 48 71 95 34 46 65 89 69 94 4 6 24 31 43 57 l36 47
49 -72 c27 -40 51 -74 54 -77 3 -3 28 -39 55 -80 27 -41 54 -80 60 -86 5 -6
17 -22 25 -34 8 -12 27 -39 41 -59 14 -20 52 -74 84 -121 32 -47 61 -87 64
-90 3 -3 19 -24 35 -48 28 -41 30 -42 83 -42 47 0 54 3 49 16 -6 15 -85 133
-96 144 -3 3 -13 16 -22 30 -9 14 -52 75 -95 137 -43 62 -107 154 -142 205
-35 51 -67 95 -71 98 -3 3 -29 40 -58 83 l-52 78 33 45 c30 42 168 227 185
249 4 6 35 48 70 95 34 47 66 90 70 95 61 77 183 247 181 249 -10 8 -119 14
-119 6 0 -7 -78 -116 -132 -185 -5 -5 -36 -48 -70 -95 -35 -47 -66 -89 -71
-95 -9 -11 -100 -134 -132 -179 -11 -15 -28 -37 -38 -49 -10 -12 -23 -29 -27
-37 -5 -8 -10 -13 -12 -10 -2 3 -19 28 -38 55 -19 28 -36 52 -39 55 -4 3 -33
45 -66 94 -33 49 -64 94 -70 100 -6 6 -32 43 -57 81 -26 39 -73 106 -104 150
-31 44 -63 92 -73 107 -14 25 -22 28 -73 28 -32 0 -58 -2 -58 -5z"/>
<path d="M9435 2028 c-4 -117 -5 -388 -3 -603 4 -370 6 -393 26 -449 84 -228
253 -321 546 -301 185 13 307 70 409 193 l27 34 0 -106 0 -106 45 0 c40 0 45
3 45 23 0 223 21 1468 25 1485 5 20 2 22 -43 22 l-49 0 -7 -437 c-7 -401 -17
-655 -28 -693 -7 -27 -46 -109 -60 -126 -77 -99 -173 -160 -297 -188 -253 -56
-465 46 -524 253 -38 132 -40 165 -28 583 6 222 11 454 11 516 l0 112 -44 0
-44 0 -7 -212z"/>
<path d="M11190 2211 c-127 -37 -223 -108 -276 -203 -27 -50 -29 -60 -29 -163
0 -94 3 -117 23 -158 40 -86 110 -139 267 -207 22 -10 54 -19 190 -55 50 -13
110 -30 135 -36 76 -21 196 -87 247 -137 124 -121 127 -273 6 -388 -84 -81
-207 -124 -352 -124 -73 0 -195 16 -226 28 -157 65 -241 151 -260 270 -6 38
-10 42 -35 42 -16 0 -36 3 -46 7 -16 6 -17 0 -11 -66 17 -201 194 -336 484
-372 235 -28 459 46 563 187 47 64 55 94 55 218 0 104 -3 128 -22 167 -31 67
-112 142 -191 179 -122 58 -141 64 -357 120 -44 12 -94 28 -112 36 -17 8 -37
14 -45 14 -7 0 -24 9 -38 20 -14 11 -30 20 -36 20 -24 0 -105 73 -126 113 -18
34 -23 58 -22 122 0 71 4 86 30 128 32 53 112 113 189 143 72 27 294 27 380 0
149 -48 275 -186 275 -301 l0 -35 50 0 c57 0 58 2 39 92 -20 96 -49 150 -115
216 -35 34 -70 62 -78 62 -9 0 -16 4 -16 8 0 9 -35 22 -140 53 -86 24 -317 25
-400 0z"/>
</g>
</svg>
